HIERARCHY
ROOT Hips
{
  OFFSET 3.13124 94.3669 -3.18751
  CHANNELS  6 Xposition Yposition Zposition Zrotation Xrotation Yrotation
  JOINT LeftUpLeg
  {
    OFFSET 8.64259 1.95398 -2.38835
    CHANNELS 3 Zrotation Xrotation Yrotation
    JOINT LeftLeg
    {
      OFFSET 43.7702 0 0
      CHANNELS 3 Zrotation Xrotation Yrotation
      JOINT LeftFoot
      {
        OFFSET 40.6238 0 0
        CHANNELS 3 Zrotation Xrotation Yrotation
        JOINT LeftToeBase
        {
          OFFSET 12.7242 0 0
          CHANNELS 3 Zrotation Xrotation Yrotation
          End Site
          {
            OFFSET 0 0 0
          }
        }
      }
    }
  }
  JOINT RightUpLeg
  {
    OFFSET -8.2249 1.95398 -2.59336
    CHANNELS 3 Zrotation Xrotation Yrotation
    JOINT RightLeg
    {
      OFFSET 43.5653 0 0
      CHANNELS 3 Zrotation Xrotation Yrotation
      JOINT RightFoot
      {
        OFFSET 40.6238 0 0
        CHANNELS 3 Zrotation Xrotation Yrotation
        JOINT RightToeBase
        {
          OFFSET 12.7242 0 0
          CHANNELS 3 Zrotation Xrotation Yrotation
          End Site
          {
            OFFSET 0 0 0
          }
        }
      }
    }
  }
  JOINT Spine
  {
    OFFSET 0.165834 0.87714 6.61349
    CHANNELS 3 Zrotation Xrotation Yrotation
    JOINT Spine1
    {
      OFFSET 7.38962 1.71661e-005 0
      CHANNELS 3 Zrotation Xrotation Yrotation
      JOINT Spine2
      {
        OFFSET 11.9445 1.14441e-005 0
        CHANNELS 3 Zrotation Xrotation Yrotation
        JOINT Spine3
        {
          OFFSET 14.7254 4.19617e-005 0
          CHANNELS 3 Zrotation Xrotation Yrotation
          JOINT Spine4
          {
            OFFSET 10.9679 0 0
            CHANNELS 3 Zrotation Xrotation Yrotation
            JOINT RightShoulder
            {
              OFFSET 2.46616 -1.6653 3.69651
              CHANNELS 3 Zrotation Xrotation Yrotation
              JOINT RightArm
              {
                OFFSET 13.0012 0 0
                CHANNELS 3 Zrotation Xrotation Yrotation
                JOINT RightForeArm
                {
                  OFFSET 28.7848 1.52588e-005 0
                  CHANNELS 3 Zrotation Xrotation Yrotation
                  JOINT RightHand
                  {
                    OFFSET 26.5688 1.52588e-005 0
                    CHANNELS 3 Zrotation Xrotation Yrotation
                    End Site
                    {
                      OFFSET 0 0 0
                    }
                  }
                }
              }
            }
            JOINT LeftShoulder
            {
              OFFSET 2.38034 -1.29275 -3.75231
              CHANNELS 3 Zrotation Xrotation Yrotation
              JOINT LeftArm
              {
                OFFSET 16.3182 6.10352e-005 0
                CHANNELS 3 Zrotation Xrotation Yrotation
                JOINT LeftForeArm
                {
                  OFFSET 27.0901 0 0
                  CHANNELS 3 Zrotation Xrotation Yrotation
                  JOINT LeftHand
                  {
                    OFFSET 24.5451 1.52588e-005 0
                    CHANNELS 3 Zrotation Xrotation Yrotation
                    End Site
                    {
                      OFFSET 0 0 0
                    }
                  }
                }
              }
            }
            JOINT Neck
            {
              OFFSET 5.0226 -0.0266342 0
              CHANNELS 3 Zrotation Xrotation Yrotation
              JOINT Head
              {
                OFFSET 6.69363 2.86102e-005 0
                CHANNELS 3 Zrotation Xrotation Yrotation
                End Site
                {
                  OFFSET 0 0 0
                }
              }
            }
          }
        }
      }
    }
  }
}
MOTION
Frames:	18
Frame Time:	0.0333333
-2.09799 91.661 -2.70491 84.3299 40.792 97.8359 -172.849 11.203 116.626 -26.5168 -34.7595 -2.57658 28.7553 10.9682 10.5457 28.7808 3.13643e-006 2.62337e-006 162.644 20.9242 82.6466 -26.0407 -53.1704 -3.02829 66.3283 22.3259 -27.7313 28.7808 1.12816e-005 1.91453e-005 -0.513999 6.93018 -90.0522 12.986 -1.12075 -1.83667 1.31435 -1.20049 -1.78557 -21.2115 -0.5171 -2.08848 -1.19886 -0.517101 -2.08848 102.154 -18.2317 -82.1715 -148.853 -72.155 -171.976 -0.799599 29.949 -5.36723 -160.626 80.0652 154.708 -77.7723 -21.1154 97.0492 66.4224 78.6561 -119.096 -4.56496 -23.6269 -16.532 9.20125 -1.83146 -21.4035 29.5249 9.56164 -40.3836 -23.9953 20.8158 27.1356 
-4.26113 93.2086 -6.73684 84.3569 45.9868 96.6822 -167.525 4.90875 115.39 -7.1289 -32.2889 -2.25889 19.196 10.1088 11.1881 28.7808 3.13643e-006 2.62337e-006 163.135 19.2128 79.6451 -26.9542 -51.278 -6.88586 55.2302 30.071 -24.1441 28.7808 1.12816e-005 1.91453e-005 -0.801122 6.57245 -90.1846 13.7078 -1.67031 -1.23398 2.03743 -1.72302 -1.15925 -20.4982 -1.2223 -1.67888 -0.485552 -1.22231 -1.67889 102.154 -18.2317 -82.1715 108.187 76.822 -78.0836 -12.9891 -2.65927 -0.00640227 -24.207 -57.337 -29.1208 -77.7723 -21.1154 97.0492 3.24891 86.9225 -50.3315 -1.60481 -17.8653 -11.9974 5.68646 -1.27435 -21.0299 23.6739 7.69649 -44.4983 -25.8504 17.9309 28.4623 
-6.91158 93.9354 -10.5159 83.1878 52.5164 97.7546 -168.24 6.73006 114.839 -5.43451 -28.2582 -1.88202 20.0682 4.90895 4.35519 28.7808 3.13643e-006 2.62337e-006 164.899 18.7533 78.2657 -31.1643 -51.0813 -8.14513 45.716 31.2426 -26.3731 28.7808 1.12816e-005 1.91453e-005 -0.995737 6.19596 -90.4888 14.474 -2.16459 -0.82968 2.80461 -2.19902 -0.733568 -19.7393 -1.81516 -1.44199 0.273332 -1.81519 -1.44202 102.154 -18.2317 -82.1715 33.2156 62.564 -3.76514 -5.97157 -20.6953 -0.003462 -14.8769 -2.56383 -8.24048 -77.7723 -21.1154 97.0492 -55.1312 73.1038 14.4942 4.26655 -10.8327 -5.17823 3.66582 -0.818726 -18.2454 22.8994 2.78268 -48.4921 -31.8762 13.0224 29.003 
-9.44971 93.7423 -13.5327 81.0901 58.5606 99.8724 -169.114 9.00358 114.024 -5.27855 -23.7941 -1.50931 16.1995 -0.524033 -2.80755 28.7808 3.13643e-006 2.62337e-006 168.957 19.5748 79.3172 -41.7403 -49.4203 -9.71714 44.8248 30.9284 -26.9828 28.7808 1.12816e-005 1.91453e-005 -1.09029 5.93143 -90.1913 15.0096 -2.33724 -0.316085 3.34075 -2.34888 -0.21287 -19.2091 -2.13404 -1.00416 0.803566 -2.13405 -1.0042 102.154 -18.2317 -82.1715 14.7221 61.6571 13.9159 -1.65758 -39.4771 -0.00117217 -16.7139 22.722 2.20383 -77.7723 -21.1154 97.0492 -38.3229 45.0558 8.32365 6.34084 -1.50948 -2.63875 5.06385 -0.490969 -10.4706 27.1242 -4.16238 -51.0221 -37.2351 8.7649 27.1717 
-11.6937 93.1626 -15.7382 80.3575 64.4529 101.032 -169.552 10.2514 114.245 -7.46156 -25.9513 -1.69243 4.41827 -16.2052 -28.8421 28.7808 3.13643e-006 2.62337e-006 172.673 21.1431 81.8771 -51.4761 -44.2683 -6.79852 45.8128 27.9792 -24.4262 28.7808 1.12816e-005 1.91453e-005 -1.25742 5.92652 -89.2825 14.9932 -2.45471 0.458045 3.32438 -2.43263 0.565779 -19.2287 -2.48054 -0.301882 0.783903 -2.48056 -0.301891 102.154 -18.2317 -82.1715 3.88919 59.2768 24.9863 -2.90007 -55.3427 -0.0565238 -20.0835 43.2681 7.76459 -77.7723 -21.1154 97.0492 -23.8083 40.0506 8.29609 6.14536 -13.4796 -7.12305 6.65468 -0.208512 -6.06552 31.2836 -10.4569 -52.4286 -37.2259 6.22184 25.2282 
-13.4909 92.3875 -17.2406 84.0639 70.8495 96.8887 -171.307 11.8269 111.751 -14.676 -22.9086 -1.53872 18.8093 -18.7818 -25.6253 28.7808 3.13643e-006 2.62337e-006 174.256 22.7302 84.2007 -59.2513 -41.8276 -2.60657 48.571 27.5042 -24.5408 28.7808 1.12816e-005 1.91453e-005 -1.4503 6.09272 -87.8673 14.6288 -2.46323 1.73261 2.95884 -2.38187 1.83919 -19.5917 -2.8666 0.912926 0.420947 -2.86658 0.912905 102.154 -18.2317 -82.1715 -0.0534519 53.9286 31.3645 -9.64243 -41.0149 -7.17088 -20.2656 34.1176 4.73035 -77.7723 -21.1154 97.0492 -6.85702 27.2667 4.41265 6.78132 -3.04942 -14.1945 16.8495 1.71965 6.47914 32.9304 -14.0059 -50.364 -32.5966 5.07959 20.0434 
-15.2475 89.9915 -18.4014 92.1686 78.3739 88.4501 -176.809 19.29 110.308 -33.7788 -19.0975 -1.35449 37.1373 -21.7997 -21.2264 28.7808 3.13643e-006 2.62337e-006 173.021 25.6908 86.3354 -64.8335 -43.2642 3.24221 50.0318 24.1186 -25.4893 28.7808 1.12816e-005 1.91453e-005 -1.54526 6.30563 -86.9459 14.2038 -2.35986 2.86745 2.53171 -2.23407 2.96912 -20.0058 -3.12678 2.0215 0.00688192 -3.12679 2.02147 102.154 -18.2317 -82.1715 -2.70105 48.8816 37.1433 -10.611 -20.5501 -15.2986 -33.6122 11.7312 -3.45837 -77.7723 -21.1154 97.0492 10.3886 27.3032 -6.94216 -2.06329 -23.9052 -19.9242 18.121 2.36387 9.32731 32.8459 -13.8586 -41.5388 -24.1304 3.50468 12.5269 
-17.0753 86.6557 -19.2968 145.011 86.8841 36.7863 178.818 26.4703 110.521 -47.8813 -14.9878 -0.62749 49.9385 -22.2876 -16.952 28.7808 3.13643e-006 2.62337e-006 167.942 29.4738 91.6669 -68.2067 -45.0736 7.85183 47.7744 26.5726 -30.226 28.7808 1.12816e-005 1.91453e-005 -2.06012 6.62248 -86.848 13.5726 -3.06854 3.87865 1.8991 -2.89521 4.0097 -20.6383 -4.09124 2.77466 -0.625646 -4.09126 2.77466 102.154 -18.2317 -82.1715 7.98728 40.498 32.1962 -9.84611 3.2466 -23.507 -40.6588 -6.4431 -16.0605 -77.7723 -21.1154 97.0492 24.0324 28.6408 -21.5089 1.88656 -35.1034 -19.6878 11.7729 1.84862 11.1426 28.8529 -10.5345 -32.8411 -13.578 2.57433 7.74291 
-18.7685 84.2998 -19.9574 -98.6549 80.1242 -77.4317 175.541 34.6635 111.684 -55.494 -6.13914 0.174061 57.6898 -19.497 -12.755 28.7808 3.13643e-006 2.62337e-006 162.397 33.5682 96.9402 -64.5216 -46.7211 13.5884 48.1201 28.8432 -35.5196 28.7808 1.12816e-005 1.91453e-005 -2.71278 6.96555 -86.9266 12.9061 -4.12571 4.3551 1.23363 -3.92771 4.53275 -21.3231 -5.25387 2.91011 -1.3104 -5.25389 2.91011 102.154 -18.2317 -82.1715 24.0268 22.8554 25.0259 -7.68044 25.4257 -33.4363 -31.342 -6.19731 -26.6903 -77.7723 -21.1154 97.0492 33.9399 31.0796 -37.8009 19.0407 -44.4971 -10.8019 4.10395 0.512861 6.28419 30.9281 -9.93434 -21.1716 -8.57248 -0.841037 4.75761 
-20.1133 82.357 -20.8374 -92.6547 71.2125 -83.5907 173.929 40.3722 110.135 -61.1387 -0.436761 0.646054 59.304 -17.128 -10.8851 28.7808 3.13643e-006 2.62337e-006 160.535 36.9005 97.4132 -59.5369 -49.2053 18.9887 51.7836 29.1469 -40.5239 28.7808 1.12816e-005 1.91453e-005 -2.92963 7.45437 -86.6383 11.9343 -4.234 4.86265 0.260501 -4.01744 5.04331 -22.2906 -5.4901 3.36946 -2.27796 -5.49012 3.36945 102.154 -18.2317 -82.1715 39.4759 -9.8232 22.0545 -20.0005 40.2323 -28.6639 -30.2986 16.1488 -13.5619 -77.7723 -21.1154 97.0492 42.0157 31.0999 -55.3906 35.8339 -40.2745 -4.66027 4.30367 0.77168 10.3791 38.1737 -8.43107 -3.25541 -13.2581 -6.41394 0.555496 
-21.325 80.9257 -22.1853 -94.6061 67.3685 -82.7079 173.756 41.6147 108.366 -65.3706 1.37403 0.855919 61.0629 -16.8221 -10.3087 28.7808 3.13643e-006 2.62337e-006 161.995 39.0255 96.9112 -62.5603 -47.279 19.2971 43.2403 32.4295 -44.1265 28.7808 1.12816e-005 1.91453e-005 -2.58345 7.89248 -86.4109 11.0668 -3.49848 5.33991 -0.611025 -3.2599 5.48814 -23.1269 -4.94414 4.05605 -3.11423 -4.94416 4.05606 102.154 -18.2317 -82.1715 48.8919 -49.5092 19.9648 -43.5583 44.9061 -5.54137 -39.717 47.8385 1.09517 -77.7723 -21.1154 97.0492 39.6187 29.669 -67.9583 44.6498 -33.5945 -4.62224 4.44759 0.734318 9.41989 38.4706 -4.7883 8.37672 -15.1649 -8.83288 2.24595 
-22.474 79.1576 -23.846 -97.3863 66.0455 -80.9802 173.631 41.7719 107.544 -70.3165 2.39894 1.00665 64.332 -17.8088 -10.1407 28.7808 3.13643e-006 2.62337e-006 164.558 40.4625 94.557 -68.0451 -46.6 19.7284 43.2349 34.1207 -42.023 28.7808 1.12816e-005 1.91453e-005 -2.3309 8.05526 -85.8873 10.6751 -2.70641 5.34335 -1.00455 -2.46924 5.45502 -23.501 -4.18426 4.28042 -3.48833 -4.18426 4.28043 102.154 -18.2317 -82.1715 36.7386 -56.2195 -0.241219 -51.2664 33.0834 -11.0421 -46.6797 66.676 12.558 -77.7723 -21.1154 97.0492 29.568 37.0607 -75.7631 47.0128 -40.0874 -12.8934 5.30407 0.731709 7.99574 33.2424 0.243816 20.5468 -16.1085 -9.09593 1.02824 
-23.3091 78.945 -25.5351 -96.8808 65.8507 -81.8826 173.78 40.9859 107.122 -71.239 2.53629 1.0378 65.3475 -19.1058 -10.6119 28.7808 3.13643e-006 2.62337e-006 165.116 41.0098 94.0027 -70.2487 -48.641 17.428 36.4568 35.3824 -35.3978 28.7808 1.12816e-005 1.91453e-005 -1.80849 8.15034 -86.0711 10.5053 -1.83062 5.12303 -1.17467 -1.60389 5.20019 -23.6585 -3.28316 4.33469 -3.64586 -3.28316 4.33466 102.154 -18.2317 -82.1715 19.0407 -57.2418 -26.2541 -57.1166 24.3163 -20.9416 -32.3626 59.9999 3.23584 -77.7723 -21.1154 97.0492 22.23 47.4434 -82.2825 38.0711 -44.4942 -27.1787 12.9819 1.50295 7.34048 30.7452 3.8082 28.9053 -19.4007 -8.86532 0.10528 
-24.0203 79.9459 -27.1118 -96.2948 65.5245 -83.8499 175.225 38.8826 104.888 -68.9997 1.85557 0.946792 64.7895 -20.5508 -11.5875 28.7808 3.13643e-006 2.62337e-006 165.222 41.0379 90.9484 -72.1505 -49.1088 14.7156 32.6224 36.1984 -25.2259 28.7808 1.12816e-005 1.91453e-005 -1.42353 8.3009 -86.1489 10.2139 -1.13411 5.17458 -1.46699 -0.905894 5.2207 -23.9381 -2.63326 4.58722 -3.92545 -2.63329 4.58723 102.154 -18.2317 -82.1715 11.2149 -50.7042 -45.352 -68.073 11.8243 -36.1768 1.18864 73.5494 -21.0986 -77.7723 -21.1154 97.0492 21.3501 57.5553 -91.1859 36.3932 -40.6109 -31.4686 10.0112 0.434645 0.510574 31.36 5.92051 31.0497 -21.5333 -8.16017 0.619186 
-24.493 81.4715 -28.6157 -94.8787 65.1935 -86.0042 176.449 36.5121 103.293 -65.3469 1.42717 0.832112 63.9939 -20.4911 -11.7322 28.7808 3.13643e-006 2.62337e-006 164.831 41.3359 86.9356 -73.5013 -48.0445 12.9992 36.0637 33.9318 -18.2567 28.7808 1.12816e-005 1.91453e-005 -1.17736 8.43693 -86.274 9.95501 -0.723486 4.84012 -1.72475 -0.510136 4.86717 -24.1998 -2.14261 4.40053 -4.18714 -2.14262 4.40053 102.154 -18.2317 -82.1715 24.9225 -39.5823 -45.6759 -88.5777 9.64918 -64.3388 26.2345 65.2383 -42.5945 -77.7723 -21.1154 97.0492 10.6655 66.594 -89.002 35.7692 -33.1625 -38.9942 7.88126 -0.0898883 -4.22873 35.011 8.652 30.5532 -24.7257 -6.95121 2.52321 
-24.8574 84.0311 -30.2351 -94.4044 65.3532 -86.1563 177.598 32.4148 103.02 -59.2786 0.701021 0.660318 62.0141 -20.0778 -12.0075 28.7808 3.13643e-006 2.62337e-006 164.953 40.2569 83.2429 -73.4713 -44.3916 10.8939 45.0347 30.6212 -15.9397 28.7808 1.12816e-005 1.91453e-005 -0.97426 8.36344 -86.7219 10.1043 -0.556954 4.21378 -1.57352 -0.369541 4.23428 -24.0611 -1.80803 3.85178 -4.04847 -1.80805 3.85176 102.154 -18.2317 -82.1715 30.1488 -41.9155 -46.2324 -114.175 13.5407 -64.1892 77.8851 70.9541 -94.3845 -77.7723 -21.1154 97.0492 -7.28563 69.44 -72.8032 25.8047 -30.6631 -55.0713 13.6529 -0.541646 -7.54125 34.8166 9.443 28.9106 -24.3072 -5.89884 5.86759 
-25.0749 87.4616 -32.2111 -96.1238 66.6266 -84.3853 179.39 25.7498 102.388 -50.339 -2.14511 0.306154 58.0495 -18.5702 -12.1039 28.7808 3.13643e-006 2.62337e-006 166.84 37.3126 80.0136 -70.3697 -42.5641 7.99306 44.9976 30.1451 -18.4797 28.7808 1.12816e-005 1.91453e-005 -0.998493 8.11452 -87.1012 10.6057 -0.878301 3.51568 -1.06982 -0.722821 3.55087 -23.5766 -1.88739 3.08987 -3.56396 -1.88738 3.08987 102.154 -18.2317 -82.1715 33.487 -44.0582 -39.2624 -124.237 20.4541 -61.5713 112.251 66.7424 -131.56 -77.7723 -21.1154 97.0492 -29.5015 62.878 -47.43 37.16 -14.9094 -68.5016 13.1383 -0.453023 -7.01128 31.2033 10.7738 29.0496 -23.4196 -3.6294 6.29124 
-25.0596 90.9252 -34.5939 -96.7702 69.8161 -83.4578 -178.821 19.385 102.052 -41.1099 -8.62885 -0.331215 49.3978 -16.0945 -12.631 28.7808 3.13643e-006 2.62337e-006 169.968 34.0506 77.9107 -64.2731 -43.7506 5.68748 42.034 32.4903 -23.9142 28.7808 1.12816e-005 1.91453e-005 -1.34864 7.63821 -87.1076 11.5457 -1.66248 2.92531 -0.127657 -1.53219 2.99558 -22.6536 -2.46461 2.29085 -2.64099 -2.46462 2.29084 102.154 -18.2317 -82.1715 35.5731 -44.3628 -30.8087 -136.25 18.6038 -56.4449 134.286 54.0251 -161.241 -77.7723 -21.1154 97.0492 -45.8283 46.8779 -25.9119 36.6233 -8.93919 -85.7589 12.2563 -0.449203 -7.12377 27.6772 13.5452 26.7131 -23.3534 0.602748 8.89938 
